  http://www.scenespeeds.com/	






Prometheus.2012.HD.CAM.NEW.SOURCE.XViD-26K 

General 
Complete name: Prometheus.2012.HDCAM.XViD-26k.avi 
Format: AVI 
Format/Info: Audio Video Interleave 
File size: 1.60 GiB 
Duration: 1h 49mn 
Overall bit rate: 2 085 Kbps 
Writing application: VirtualDubMod 1.5.10.2 (build 2540/release) 
Writing library: VirtualDub build 32842/release 

Video 
ID: 0 
Format: MPEG-4 Visual 
Format profile: Advanced Simple@L5 
Format settings, BVOP: Yes 
Format settings, QPel: No 
Format settings, GMC: No warppoints 
Format settings, Matrix: Default (H.263) 
Muxing mode: Packed bitstream 
Codec ID: XVID 
Codec ID/Hint: XviD 
Duration: 1h 49mn 
Bit rate: 1 947 Kbps 
Width: 720 pixels 
Height: 332 pixels 
Display aspect ratio: 2.2:1 
Frame rate: 25.000 fps 
Color space: YUV 
Chroma subsampling: 4:2:0 
Bit depth: 8 bits 
Scan type: Progressive 
Compression mode: Lossy 
Bits/(Pixel*Frame): 0.326 
Stream size: 1.50 GiB (93%) 
Writing library: XviD 1.2.1 (UTC 2008-12-04) 

Audio 
ID: 1 
Format: MPEG Audio 
Format version: Version 1 
Format profile: Layer 3 
Codec ID: 55 
Codec ID/Hint: MP3 
Duration: 1h 49mn 
Bit rate mode: Constant 
Bit rate: 128 Kbps 
Channel(s): 2 channels 
Sampling rate: 44.1 KHz 
Compression mode: Lossy 
Video delay: 2ms 
Stream size: 101 MiB (6%) 
Alignment: Split accross interleaves 
Interleave, duration: 40 ms (1.00 video frame) 
Interleave, preload duration: 500 ms 





  http://www.scenespeeds.com/	
